# xmcd
#
# Track frame offsets:
#       150
#       63240
#       100419
#       112875
#       176439
#       233005
#       275402
#
# Disc length: 4560 seconds
#
# Revision: 1
# Processed by: cddbd v1.4PL0 Copyright (c) Steve Scherf et al.
# Submitted via: MusiCat 1.1
#
DISCID=5311ce07
DTITLE=Acid Jam 2 - Acid Jam 2 CD1
DYEAR=1900
DGENRE=
TTITLE0=reformation blues
TTITLE1=funeral ballet music
TTITLE2=high
TTITLE3=long velvet
TTITLE4=ice plug
TTITLE5=change in the weather
TTITLE6=negative blooty
EXTD=0\n\n\n
EXTT0=
EXTT1=
EXTT2=
EXTT3=
EXTT4=
EXTT5=
EXTT6=
PLAYORDER=
